<?xml version="1.0" encoding="utf-8" ?><svg xmlns="http://www.w3.org/2000/svg" xmlns:xlink="http://www.w3.org/1999/xlink" width="1364" height="402" viewBox="0 0 1364 402"><path fill="#333334" d="M0 0L1364 0L1364 402L0 402L0 0Z"/><path fill="#72CFF4" d="M128.304 113.895L174.4 113.805C203.284 113.765 235.916 112.047 258.59 132.925C276.344 149.273 280.826 170.504 281.983 193.76C283.309 220.413 278.441 245.07 259.896 265.268C236.149 288.219 207.904 286.31 177.155 286.241C160.816 286.131 144.475 286.159 128.136 286.325C128.701 228.971 127.469 171.133 128.304 113.895Z"/><path fill="#333334" d="M170.988 143.429C191.927 142.981 220.999 139.518 235.829 156.64C247.129 169.684 248.596 189.468 247.499 205.973C246.422 222.178 242.901 236.106 230.214 247.237C213.069 259.481 183.201 256.386 161.862 256.384L161.825 143.615L170.988 143.429Z"/><path fill="#FEFEFE" d="M934.017 113.492C944.632 113.865 956.239 113.71 966.931 113.765L967.211 166.949C986.678 156.154 1019.44 156.942 1037.38 170.663C1049.63 180.103 1055.98 195.229 1057.63 210.312C1059.93 231.388 1056.63 250.217 1043.58 267.117C1023.62 291.876 987.128 287.49 959.342 284.672C951.391 283.866 942.346 284.116 934.3 284.12L934.017 113.492Z"/><path fill="#333334" d="M989.666 187.93C1023.37 185.188 1031.61 216.759 1019.99 242.669C1016.62 250.19 1009.8 254.073 1002.2 256.332C989.968 258.097 978.914 255.749 967.213 252.431C967.793 233.184 967.717 213.922 966.985 194.679C975.476 190.245 980.283 189.006 989.666 187.93Z"/><path fill="#72CFF4" d="M479.83 159.999C498.056 157.523 528.889 159.987 542.573 173.499C547.782 178.713 551.351 185.336 552.839 192.552C554.488 200.21 553.886 218.805 553.903 227.457L554.15 286.273C547.968 286.374 542.368 286.444 536.197 286.168C531.509 283.213 528.612 279.81 525.174 275.634C501.851 287.457 475.553 293.523 451.796 278.543C440.525 269.214 436.213 255.225 438.157 240.971C439.248 232.645 443.652 225.111 450.374 220.072C467.797 207.006 500.078 209.193 520.391 212.013C520.326 208.61 520.414 203.046 519.641 199.822C516.651 187.352 501.621 186.409 490.782 186.343C476.585 186.255 462.791 189.051 448.958 192.73C448.885 183.702 449.078 174.674 449.538 165.658C460.654 162.88 468.305 161.094 479.83 159.999Z"/><path fill="#333334" d="M492.553 233.23C502.315 232.139 511.215 233.513 520.724 235.317C520.767 241.015 520.711 246.713 520.555 252.408C513.477 258.159 507.992 259.621 499.495 261.841C497.366 262.106 495.233 262.337 493.096 262.533C466.125 264.899 458.869 235.265 492.553 233.23Z"/><path fill="#72CFF4" d="M347.773 159.942C353.384 159.005 366.359 159.409 372.028 159.921C417.099 163.989 421.513 198.923 418.418 234.887C390.037 234.927 361.312 234.685 332.966 235.072C334.66 242.346 336.18 247.684 342.414 252.712C355.735 263.455 386.994 259.232 403.764 257.44C406.808 257.323 410.54 256.879 413.629 256.593L413.701 283.647C385.876 287.216 350.164 292.376 324.535 275.603C296.234 257.08 293.431 206.541 310.955 179.792C319.059 167.42 333.394 162.248 347.773 159.942Z"/><path fill="#333334" d="M354.786 186.584C355.326 186.533 355.868 186.49 356.409 186.455C375.583 185.235 386.023 191.643 387.219 211.306L366.642 211.34C360.862 211.326 338.309 212.169 334.09 211.371C329.158 204.97 339.015 194.378 344.049 190.604C347.305 188.163 350.865 187.343 354.786 186.584Z"/><path fill="#FEFEFE" d="M783.484 169.01C789.112 163.298 799.091 152.381 804.66 147.419C819.506 175.251 824.324 199.337 814.85 230.514C808.344 252.199 793.426 270.381 773.422 281.006C752.618 292.067 724.252 293.702 701.86 286.858C694.111 284.412 686.679 281.061 679.717 276.874C688.05 270.424 693.964 262.789 701.609 256.043C722.214 269.24 757.339 265.28 772.788 245.821L771.491 243.325L765.048 248.572C762.931 239.423 761.259 236.908 763.962 228.075C760.285 219.286 764.391 217.001 755.247 212.53C752.547 213.625 749.306 214.421 746.461 215.194C744.623 213.55 742.77 211.286 741.126 209.396C747.995 203.069 759.351 191.756 766.242 186.638C769.489 187.176 773.477 188.794 775.389 186.055C775.702 184.086 775.851 183.61 774.899 181.91C773.148 181.903 772.604 181.903 770.912 181.494L770.785 180.066C771.867 178.498 778.656 173.742 781.131 171.512L785.331 178.406L787.42 177.007C786.13 174.222 784.961 171.702 783.484 169.01Z"/><path fill="#FEFEFE" d="M766.242 186.638C769.489 187.176 773.477 188.794 775.389 186.055C775.702 184.086 775.851 183.61 774.899 181.91C773.148 181.903 772.604 181.903 770.912 181.494L770.785 180.066C771.867 178.498 778.656 173.742 781.131 171.512L785.331 178.406L787.42 177.007C791.69 187.264 792.159 200.178 790.706 211.113C788.036 224.106 782.083 236.228 772.788 245.821L771.491 243.325L765.048 248.572C762.931 239.423 761.259 236.908 763.962 228.075C760.285 219.286 764.391 217.001 755.247 212.53C752.547 213.625 749.306 214.421 746.461 215.194C744.623 213.55 742.77 211.286 741.126 209.396C747.995 203.069 759.351 191.756 766.242 186.638Z"/><defs><linearGradient id="gradient_0" gradientUnits="userSpaceOnUse" x1="769.14948" y1="228.35934" x2="791.99115" y2="224.22343"><stop offset="0" stop-color="black"/><stop offset="1" stop-color="#282829"/></linearGradient></defs><path fill="url(#gradient_0)" d="M771.491 243.325C773.713 241.133 782.79 229.41 782.427 227.384C780.876 218.734 786.466 216.702 788.364 207.503L790.706 211.113C788.036 224.106 782.083 236.228 772.788 245.821L771.491 243.325Z"/><path fill="#100F10" d="M785.331 178.406L787.42 177.007C791.69 187.264 792.159 200.178 790.706 211.113L788.364 207.503C786.672 206.591 787.209 208.671 784.293 207.768C782.593 205.712 776.495 195.381 777.534 193.261C781.009 195.659 781.984 206.285 786.777 204.91C789.691 201.489 789.048 195.718 787.378 191.741C787.217 191.358 787.564 189.767 787.688 189.311C788.597 185.947 786.558 181.44 785.331 178.406Z"/><path fill="#FEFEFE" d="M663.516 263.113C658.73 256.989 653.958 250.851 650.323 243.887C628.482 202.042 641.933 143.573 685.12 121.182C710.68 107.93 738.796 108.017 765.88 116.521C760.698 124.388 753.008 131.359 746.946 140.629C735.106 138.308 715.037 138.605 704.666 144.785C704.743 145.56 704.916 146.73 704.834 147.458C709.323 149.832 709.974 150.131 711.616 154.912C711.149 156.686 710.371 160.063 709.632 161.601C710.884 164.578 712.155 167.477 713.117 170.565C710.047 170.791 709.068 166.054 704.272 168.675L704.017 169.81C704.769 170.876 705.381 171.706 706.213 172.711C704.483 176.369 687.694 178.07 690.342 193.207L689.958 193.001C687.356 193.48 686.572 193.569 684.295 195.054L683.893 195.728C684.881 198.487 687.126 205.286 687.754 208.082C686.79 207.752 676.85 199.431 673.66 199.236C672.129 199.142 671.424 196.68 671.049 195.145C670.228 190.685 671.374 190.913 668.97 187.41C665.744 208.589 669.269 222.196 681.686 239.367C674.289 247.824 669.485 253.647 663.516 263.113Z"/><path fill="#FEFEFE" d="M704.666 144.785C704.743 145.56 704.916 146.73 704.834 147.458C709.323 149.832 709.974 150.131 711.616 154.912C711.149 156.686 710.371 160.063 709.632 161.601C710.884 164.578 712.155 167.477 713.117 170.565C710.047 170.791 709.068 166.054 704.272 168.675L704.017 169.81C704.769 170.876 705.381 171.706 706.213 172.711C704.483 176.369 687.694 178.07 690.342 193.207L689.958 193.001C687.356 193.48 686.572 193.569 684.295 195.054L683.893 195.728C684.881 198.487 687.126 205.286 687.754 208.082C686.79 207.752 676.85 199.431 673.66 199.236C672.129 199.142 671.424 196.68 671.049 195.145C670.228 190.685 671.374 190.913 668.97 187.41C669.734 184.758 670.602 182.138 671.573 179.555C677.487 163.799 689.421 151.713 704.666 144.785Z"/><path fill="#100F10" d="M704.666 144.785C704.743 145.56 704.916 146.73 704.834 147.458C697.96 149.635 701.826 152.432 696.071 152.521C681.133 162.287 672.217 177.417 671.049 195.145C670.228 190.685 671.374 190.913 668.97 187.41C669.734 184.758 670.602 182.138 671.573 179.555C677.487 163.799 689.421 151.713 704.666 144.785Z"/><path fill="#333334" d="M691.281 159.335C694.26 157.542 698.178 156.012 701.065 154.186C701.588 153.855 703.674 151.6 704.994 150.582C706.281 151.938 706.067 153.617 706.356 155.833C708.475 157.046 709.585 156.198 711.616 154.912C711.149 156.686 710.371 160.063 709.632 161.601C705.205 157.765 705.776 160.718 703.81 155.434C701.368 158.323 701.314 163.461 697.74 165.259C695.41 164.623 692.986 161.298 691.281 159.335Z"/><path fill="#100F10" d="M683.893 195.728C682.205 197.333 681.637 198.081 679.365 197.591C677.08 194.544 678.134 190.938 680.569 188.331C685.523 186.216 687.301 189.213 689.958 193.001C687.356 193.48 686.572 193.569 684.295 195.054L683.893 195.728Z"/><path fill="#FEFEFE" d="M1144.39 133.968C1153.33 133.971 1162.56 133.839 1171.47 134.396C1171.32 144.736 1172.41 149.37 1175.43 159.089C1185.82 159.069 1196.21 159.215 1206.59 159.526C1206.38 168.505 1206.22 177.485 1206.1 186.466C1196.6 186.15 1186.76 186.287 1177.24 186.294C1177.81 202.204 1177.32 219.129 1177.48 235.067C1177.72 260.375 1186.51 259.989 1207.56 259.638L1207.43 286.679C1190.11 285.329 1166.31 291.451 1152.44 277.802C1139.8 265.36 1143.63 241.646 1142.9 225.277C1141.56 194.896 1144.46 164.166 1144.39 133.968Z"/><path fill="#72CFF4" d="M583.462 113.82L616.675 113.822L616.759 228.735C616.776 246.541 617.537 269.034 616.614 286.288C605.572 286.247 594.531 286.289 583.491 286.413L583.462 113.82Z"/><path fill="#FEFEFE" d="M848.21 159.649C857.13 159.784 866.051 159.767 874.971 159.597C876.001 164.246 876.845 170.246 877.646 175.036C892.243 162.751 899.364 159.451 918.063 159.839C917.777 169.728 917.918 179.236 918.057 189.124C901.709 188.8 895.561 190.884 882.015 199.743C882.839 210.206 882.467 224.482 882.445 235.276C882.519 252.313 882.323 269.349 881.857 286.38C871.18 285.99 859.052 286.219 848.264 286.179L848.21 159.649Z"/><path fill="#FEFEFE" d="M770.822 87.5465C792.169 77.5551 815.984 70.0469 836.892 60.579L836.348 133.779C830.314 127.056 823.866 121.975 816.759 116.415C808.209 126.522 797.291 136.92 788.086 146.68C768.327 167.627 747.849 188.313 727.637 208.874C709.838 226.981 692.825 243.214 675.671 262.506L674.326 261.247C702.466 224.712 730.222 187.987 756.674 150.227C768.284 133.653 782.802 116.066 793.792 99.2794C788.449 96.5746 775.505 89.3566 770.822 87.5465Z"/><path fill="#FEFEFE" d="M1081.7 160.429L1115.23 160.449C1114.66 176.243 1115.3 192.925 1115.41 208.802L1115.34 286.182L1081.58 286.2C1081.37 244.276 1081.41 202.352 1081.7 160.429Z"/><path fill="#FEFEFE" d="M1081.61 113.766C1092.71 113.831 1103.8 113.755 1114.89 113.538L1114.85 140.479C1103.96 140.656 1092.5 140.459 1081.55 140.446L1081.61 113.766Z"/><path fill="#FEFEFE" d="M724.252 224.801C724.455 225.075 724.657 225.35 724.86 225.625C722.909 230.49 722.541 232.597 722.457 237.78L715.934 240.131C715.153 250.869 710.819 247.368 711.243 258.198C709.778 258.472 708.341 257.291 706.758 256.439C706.661 256.326 706.564 256.213 706.466 256.101L706.306 255.899C703.903 252.911 703.253 250.86 701.869 247.344C704.38 244.548 721.823 226.803 724.252 224.801Z"/><path fill="#FEFEFE" d="M724.732 142.683C726.718 142.404 730.774 142.275 732.931 142.135C738.68 153.933 727.197 152.582 722.353 159.882C721.902 160.771 721.964 160.531 720.979 161.142C719.16 160.201 716.218 155.596 716.572 154.853C718.484 150.839 717.698 149.195 716.007 144.412C717.385 143.15 722.409 142.969 724.732 142.683Z"/><path fill="#FEFEFE" d="M687.754 208.082C697.696 207.173 689.355 202.716 702.601 206.677C705.2 210.138 700.47 214.392 698.061 217.448C696.478 219.827 694.631 223.046 692.298 224.535L690.932 224.521C689.059 221.856 690.962 213.608 691.992 210.592C690.451 208.682 690.233 209.017 687.754 208.082Z"/><path fill="#BEBEBE" d="M674.326 261.247L675.671 262.506C672.332 265.87 669.806 268.348 666.169 271.422C667.145 269.642 672.671 263.218 674.326 261.247Z"/><path fill="#BEBEBE" d="M690.227 195.648C692.495 195.771 697.914 197.467 699.905 198.773C695.834 199.446 692.87 199.013 690.227 195.648Z"/></svg>