<?xml version="1.0" encoding="utf-8" ?><svg xmlns="http://www.w3.org/2000/svg" xmlns:xlink="http://www.w3.org/1999/xlink" width="1024" height="1024" viewBox="0 0 1024 1024"><path d="M508.403 94.2382C509.539 94.2118 510.675 94.1965 511.812 94.1925C615.363 93.9538 722.124 135.309 795.541 208.938C873.133 286.371 916.364 391.73 915.523 501.346C915.68 608.626 873.074 711.544 797.135 787.322C717.894 866.05 615.301 905.881 503.962 905.452C410.642 904.17 320.688 870.396 249.585 809.943C207.162 773.898 172.513 729.602 147.745 679.747C145.089 674.324 138.999 664.533 138.621 658.707C138.537 657.411 138.542 656.728 137.899 655.59C137.679 655.201 137.457 654.813 137.249 654.419C134.823 649.829 123.694 626.459 125.256 622.086C125.606 621.106 125.869 620.281 126.115 619.268C125.107 618.676 123.43 617.893 122.806 616.886C120.916 613.835 114.087 585.042 114.723 582.097C115.347 579.208 112.244 573.021 111.618 569.632C110.498 563.569 108.664 556.288 108.621 550.19C108.599 547.047 109.449 544.151 109.646 541.084L107.78 539.147C105.745 530.047 106.039 510.907 105.653 500.782C105.625 500.066 107.248 497.623 107.739 496.662C107.164 495.973 105.763 494.375 105.76 493.555C105.729 483.229 106.571 472.768 107.372 462.483C107.558 460.091 107.516 459.349 108.715 457.347C110.785 453.893 108.213 451.344 108.945 446.637C110.231 438.38 111.642 430.104 113.266 421.902C113.888 418.763 114.658 418.551 115.771 415.958C116.06 415.285 116.151 410.827 116.281 409.777C117.473 400.167 121.622 387.285 124.598 377.947C143.315 318.588 175.204 264.227 217.884 218.926C296.038 137.253 396.137 96.5802 508.403 94.2382Z"/><path fill="#252525" d="M500.417 141.134C697.979 135.686 862.594 291.338 868.206 488.896C873.817 686.453 718.302 851.198 520.75 856.973C322.964 862.756 157.984 707.018 152.366 509.228C146.748 311.438 302.622 146.587 500.417 141.134Z"/><path fill="#4B4B4B" d="M496.398 164.144C681.393 156.559 837.502 300.394 845.057 485.39C852.612 670.386 708.752 826.472 523.755 833.997C338.8 841.52 182.758 697.7 175.205 512.747C167.651 327.793 311.446 171.728 496.398 164.144Z"/><path d="M507.269 203.612C670.489 201.705 804.396 332.391 806.46 495.61C808.524 658.829 677.967 792.86 514.75 795.081C351.311 797.305 217.058 666.532 214.991 503.091C212.923 339.65 343.826 205.523 507.269 203.612Z"/><path fill="white" d="M495.51 212.882C653.82 204.35 789.027 325.866 797.382 484.186C805.737 642.506 684.07 777.577 525.741 785.755C367.662 793.919 232.851 672.487 224.509 514.417C216.168 356.348 337.45 221.401 495.51 212.882Z"/><path d="M491.215 228.356C641.098 217.659 771.229 330.593 781.74 480.489C792.252 630.384 679.157 760.375 529.249 770.702C379.602 781.01 249.888 668.156 239.395 518.522C228.901 368.888 341.595 239.035 491.215 228.356Z"/><path d="M247.727 506.93C245.027 414.081 291.484 326.689 369.96 276.992C448.436 227.296 547.301 222.661 630.083 264.796C744.578 323.074 800.245 455.516 761.765 578.091C723.284 700.666 601.909 777.529 474.65 759.912C347.39 742.295 251.461 635.349 247.727 506.93Z"/><path fill="white" d="M630.083 264.796C744.578 323.074 800.245 455.516 761.765 578.091C723.284 700.666 601.909 777.529 474.65 759.912C347.39 742.295 251.461 635.349 247.727 506.93C249.749 507.635 250.322 508.27 251.94 507.759L252.128 506.045C255.364 632.6 349.667 738.244 475.044 755.77C600.421 773.296 720.078 697.56 757.893 576.743C795.707 455.926 740.581 325.485 627.585 268.403C629.361 268.487 629.388 268.572 631.145 267.989L631.413 266.882L630.083 264.796Z"/><path fill="white" d="M247.727 506.93C245.027 414.081 291.484 326.689 369.96 276.992C448.436 227.296 547.301 222.661 630.083 264.796L631.413 266.882L631.145 267.989C629.388 268.572 629.361 268.487 627.585 268.403C546.294 227.337 449.403 232.016 372.448 280.724C295.494 329.432 249.801 415.001 252.128 506.045L251.94 507.759C250.322 508.27 249.749 507.635 247.727 506.93Z"/><path d="M263.314 535.546C247.277 425.95 305.19 318.848 405.68 272.263C506.17 225.677 625.33 250.69 698.606 333.751C771.881 416.813 781.84 538.161 723.087 632.058C667.433 721.001 562.207 765.787 459.524 744.232C356.842 722.678 278.506 639.361 263.314 535.546Z"/><path fill="white" d="M263.314 535.546C247.277 425.95 305.19 318.848 405.68 272.263C506.17 225.677 625.33 250.69 698.606 333.751C771.881 416.813 781.84 538.161 723.087 632.058C720.558 630.035 717.983 628.07 715.363 626.167C707.305 614.052 693.188 596.812 683.958 584.418C688.585 575.86 692.777 568.32 697.241 559.573C706.08 559.463 741.698 558.478 748.666 556.294C749.419 554.668 749.999 553.054 750.41 551.307C753.504 538.145 756.312 451.858 749.722 444.614C746.24 440.786 704.36 440.755 696.565 440.571C692.92 433.133 688.306 421.464 685.192 413.742C694.731 400.619 704.199 388.586 713.726 375.021C702.372 357.077 657.842 315.664 639.903 303.78C633.072 306.149 620.867 316.427 614.414 321.338C608.904 325.576 603.281 329.664 597.55 333.598C589.976 329.33 582.105 325.613 573.998 322.475C573.515 315.316 570.119 269.631 567.994 265.869C565.693 264.959 561.95 264.27 559.428 264.229C532.127 263.783 504.807 264.445 477.505 263.595C472.162 263.429 466.856 263.275 461.671 264.706C460.258 270.868 459.497 279.753 458.712 286.123C457.225 298.189 455.929 310.364 455.153 322.496C447.367 325.031 439.555 328.02 431.864 330.871C421.066 323.081 399.642 304.994 388.022 300.341C384.778 302.091 381 304.573 378.287 307.08C363.054 321.152 348.191 335.695 333.141 349.968C326.278 356.477 317.329 364.489 312.3 372.35C316.742 381.305 334.635 400.465 341.967 411.617C340.481 417.635 333.883 432.38 331.203 439.468C324.555 439.52 284.437 440.79 283.245 442.103C272.765 453.641 273.462 545.354 282.114 556.22C285.232 558.147 325.43 558.349 332.678 558.49C337.09 567.349 341.235 576.37 345.649 585.276C335.976 599.046 325.277 611.883 315.294 626.286C296.546 607.356 281.993 584.691 272.582 559.766C270.472 554.315 266.092 539.348 263.314 535.546Z"/><path fill="white" d="M263.314 535.546C266.092 539.348 270.472 554.315 272.582 559.766C281.993 584.691 296.546 607.356 315.294 626.286C316.238 630.211 317.937 631.582 320.607 634.637C329.329 643.178 337.957 652.172 346.614 660.825C354.067 668.273 363.017 676.854 369.842 684.798L370.605 685.477C376.075 690.392 379.183 695.291 386.109 699.002C390.013 696.251 393.836 693.386 397.573 690.412C404.578 695.496 453.391 715.262 460.347 712.641C460.462 711.29 460.534 710.264 460.564 708.894C461.607 713.206 461.171 729.461 464.13 732.509C466.696 735.152 479.978 734.435 484.391 734.46C492.244 734.506 500.93 734.41 509.022 734.381L539.039 734.316C543.856 734.334 566.566 735.545 568.246 731.432C569.774 727.692 569.84 712.884 570.295 707.783C584.087 705.043 613.24 694.921 624.502 686.859C630.199 690.419 634.384 695.376 641.365 698.766C648.995 693.53 664.839 677.23 672.145 670.028C680.261 662.002 688.316 653.914 696.31 645.765C702.59 639.476 709.585 632.836 715.363 626.167C717.983 628.07 720.558 630.035 723.087 632.058C667.433 721.001 562.207 765.787 459.524 744.232C356.842 722.678 278.506 639.361 263.314 535.546Z"/><path fill="white" d="M320.607 634.637C329.329 643.178 337.957 652.172 346.614 660.825C354.067 668.273 363.017 676.854 369.842 684.798C362.092 684.547 319.069 640.658 320.607 634.637Z"/><path fill="white" d="M429.297 666.98C438.427 669.752 447.737 673.32 456.972 676.28C458.363 685.706 459.933 699.36 460.564 708.894C460.534 710.264 460.462 711.29 460.347 712.641C453.391 715.262 404.578 695.496 397.573 690.412C404.01 685.568 423.36 670.223 429.297 666.98Z"/><path fill="white" d="M596.204 666.296C603.017 670.343 617.886 681.786 624.502 686.859C613.24 694.921 584.087 705.043 570.295 707.783C570.745 696.858 571.308 685.939 571.984 675.026C580.209 672.667 588.26 669.45 596.204 666.296Z"/><path fill="white" d="M481.28 277.015C501.375 276.867 528.9 276.562 548.544 277.52C548.919 297.754 549.114 317.99 549.129 338.228C550.87 339.042 555.98 340.899 557.906 341.364C573.624 345.162 586.744 354.164 601.031 360.178C612.512 352.383 631.979 332.366 643.392 322.476C659.974 334.491 678.805 353.817 691.751 369.697C681.561 383.237 668.15 397.412 656.558 409.97C659.285 415.559 662.702 421.241 665.546 427.045C671.62 439.444 675.035 450.264 678.493 463.483C698.48 463.451 718.467 463.284 738.452 462.981C739.74 485.03 739.884 515.378 737.716 537.519C718.459 536.914 699.197 536.448 679.932 536.121C672.075 559.789 668.932 566.115 655.313 587.355C665.435 598.812 680.465 617.425 689.79 629.544C686.202 633.944 679.834 640.161 675.825 644.147C665.563 654.274 655.082 664.177 644.392 673.85C630.784 662.749 613.965 648.669 599.905 638.734C592.663 641.813 585.266 646.02 577.82 649.145C568.32 653.132 559.37 655.835 549.54 658.844C549.086 676.082 548.725 693.322 548.459 710.563L547.912 720.464L482.357 720.469L481.848 713.486C481.553 711.134 481.578 708.748 481.465 706.38C480.723 690.803 480.742 675.094 479.658 659.543C457.354 653.085 448.007 648.704 426.8 638.933C411.45 650.818 398.497 664.02 382.265 675.964C368.567 662.438 349.523 644.4 337.179 630.218L374.358 588.237C371.33 582.957 367.982 577.951 365.01 572.517C358.344 560.329 353.861 548.233 350.16 534.914C329.991 535.505 309.818 535.916 289.642 536.147C286.615 511.183 286.248 486.452 290.504 461.573C309.378 462.493 329.898 462.427 349.001 463.019C355.851 437.294 359.578 430.702 374.117 409.146C363.433 396.726 346.567 380.452 334.796 368.439C340.05 361.875 351.222 351.129 357.421 345.09C365.053 337.656 375.015 327.601 383.056 320.904C398.726 333.158 412.05 345.849 426.167 359.725C438.819 354.322 450.169 346.643 463.897 343.23C468.801 342.011 475.142 340.482 479.799 338.76L480.299 338.57C481.254 318.671 480.478 297.23 481.28 277.015Z"/><path fill="white" d="M548.459 710.563L547.912 720.464L482.357 720.469L481.848 713.486C498.493 713.909 515.148 713.59 531.764 712.528C535.966 712.247 544.651 711.742 548.459 710.563Z"/><path d="M506.309 394.705C535.431 393.03 564.058 402.779 586.104 421.879C607.033 439.669 619.846 465.191 621.609 492.602C623.618 518.738 615.002 544.58 597.712 564.282C578.993 585.533 549.591 599.667 521.409 601.571C492.924 604.009 462.209 594.177 440.36 575.723C419.685 558.215 406.861 533.172 404.742 506.162C402.599 479.473 411.086 453.017 428.354 432.554C449.115 408.401 475.04 397.195 506.309 394.705Z"/><path fill="white" d="M509.136 403.715C559.464 401.069 608.485 440.357 612.349 491.506C614.315 515.856 606.468 539.982 590.554 558.517C571.441 580.422 545.723 590.957 517.124 592.809C493.2 594.181 466.165 585.906 448.048 570.053C379.54 510.107 419.886 409.022 509.136 403.715Z"/><path d="M511.298 411.219C534.669 410.449 559.289 419.789 576.639 435.354C593.577 450.509 603.792 471.779 605.03 494.474C606.224 517.262 598.122 539.56 582.577 556.265C565.247 575.122 541.456 584.501 516.147 585.497C491.296 585.475 468.405 578.609 449.63 561.748C432.709 546.73 422.506 525.563 421.295 502.971C420.169 480.42 428.877 457.156 444.137 440.571C462.209 420.93 485.11 412.411 511.298 411.219Z"/><path fill="white" d="M504.726 420.697C525.151 417.565 551.608 426.488 567.297 439.417C582.861 452.245 593.762 471.651 595.701 491.784C597.567 511.471 591.539 531.094 578.942 546.339C564.732 563.538 544.21 573.621 522.123 575.696C519.185 576.131 515.782 576.081 512.777 576.113C472.977 576.534 435.573 547.741 431.221 507.152C429.147 486.843 435.222 466.541 448.11 450.709C462.662 432.769 481.935 423.135 504.726 420.697Z"/><path fill="white" d="M468.223 273.588L470.432 274.301C472.008 276.537 471.076 324.947 471.065 331.945C453.023 336.557 445.184 339.746 428.478 348.192C418.342 338.272 404.708 327.061 393.794 317.62C391.828 316.05 389.518 314.335 390.487 311.501C393.725 311.778 424.913 337.618 430.581 341.488C432.927 340.726 435.596 339.618 437.87 338.61C446.965 334.581 456.209 331.473 465.548 328.104C465.563 322.243 466.029 313.497 466.281 307.544C466.662 298.532 466.471 281.978 468.223 273.588Z"/><path fill="white" d="M559.479 274.244L560.617 274.659C562.436 277.098 563.955 320.315 564.276 327.778C577.439 333.192 585.92 337.312 598.529 343.742C605.072 339.968 632.305 317.478 635.517 316.957L636.086 317.707C635.86 319.137 634.63 320.048 633.549 321.152C622.464 330.297 611.902 340.219 600.603 349.459C589.775 342.972 570.801 335.909 558.9 331.77C558.553 319.534 558.384 307.293 558.394 295.052C558.379 291.381 557.803 276.214 559.479 274.244Z"/><path fill="white" d="M695.522 379.28C696.903 380.087 696.302 379.546 697.127 381.201C696.996 385.783 678.94 407.164 674.59 412.682C680.566 425.283 685.349 436.638 690.676 449.475C696.207 449.487 732.85 450.533 734.884 453.124C733.449 454.12 733.641 453.802 731.625 453.979L685.917 454.676C680.218 438.001 675.771 427.738 668.137 411.852C677.391 401.169 686.113 390.057 695.522 379.28Z"/><path fill="white" d="M324.033 544.727C330.104 544.483 336.589 544.511 342.698 544.446C348.958 561.95 353.809 570.606 363.156 586.649C355.17 595.885 336.69 618.515 328.167 625.036C331.065 618.993 334.9 614.425 339.007 609.194C344.607 601.516 350.544 593.768 356.25 586.144C348.951 573.573 344.484 562.839 338.852 549.516C331.576 549.148 295.502 548.442 291.658 546.792L291.599 546.225C294.532 544.393 319.026 544.828 324.033 544.727Z"/><path fill="white" d="M324.484 373.496C325.76 373.72 327.534 374.058 328.448 374.982C339.418 386.078 351.249 398.608 361.561 410.176C350.94 426.311 347.276 435.391 341.866 453.454C328.22 453.59 312.74 452.981 298.956 452.79C297.099 452.773 293.588 453.022 292.689 451.165C296.223 449.622 330.174 449.522 337.174 449.116C343.876 433.722 345.71 426.638 354.627 411.44C349.61 404.173 326.57 379.769 324.484 373.496Z"/><path fill="white" d="M428.441 649.371C430.231 649.885 441.099 655.326 443.793 656.558C452.575 660.587 461.682 663.867 471.017 666.362C472.142 677.821 473.193 707.6 471.161 718.194C468.549 706.746 467.017 682.462 465.878 669.753C463.481 668.656 458.964 667.37 456.292 666.529C446.864 663.413 437.47 659.428 428.326 655.56C419.154 661.484 399.091 680.79 390.665 683.418L389.824 683.056L389.866 683.341C391.103 679.04 422.442 654.643 428.441 649.371Z"/><path fill="white" d="M686.336 545.494C698.206 545.724 728.37 545.68 738.546 547.598C730.589 549.473 701.025 550.288 691.065 550.736C688.688 554.657 685.868 560.877 683.741 565.117C680.403 571.825 676.836 578.416 673.045 584.879C675.275 588.467 677.971 591.91 680.515 595.298C683.796 600.036 698.195 618.047 697.927 621.866L697.1 622.041C692.395 619.41 671.611 592.843 666.869 586.834C675.023 572.614 680.688 560.929 686.336 545.494Z"/><path fill="white" d="M597.858 649.222C605.523 654.438 630.92 672.804 636.068 679.535L636.169 680.555L634.693 681.781C630.972 681.142 603.563 658.998 597.783 655.319C584.554 661.135 576.161 663.961 562.541 668.627C562.11 679.703 561.75 698.346 560.651 709.044L557.435 708.454C557.428 694.156 557.611 679.858 557.982 665.564C572.198 661.048 584.69 656.497 597.858 649.222Z"/><path fill="#252525" d="M557.435 708.454L560.651 709.044C560.302 711.923 560.491 715.625 558.86 717.913L558.201 717.522C557.153 714.542 557.427 711.657 557.435 708.454Z"/><path fill="#4B4B4B" d="M193.108 263.449C192.764 262.825 192.848 262.783 192.723 262.038C194.168 259.159 205.378 243.418 207.819 243.181L209.35 244.852C213.097 250.413 217.086 255.597 221.133 260.939C216.428 267.132 211.82 273.399 207.312 279.738C202.709 274.663 197.403 268.753 193.108 263.449Z"/><path fill="white" d="M193.108 263.449C192.764 262.825 192.848 262.783 192.723 262.038C194.168 259.159 205.378 243.418 207.819 243.181L209.35 244.852C204.431 250.643 199.78 256.639 195.076 262.602C194.562 263.253 193.866 263.351 193.108 263.449Z"/><path fill="#4B4B4B" d="M255.999 775.452C261.233 779.613 268.053 785.52 273.073 790.084C270.539 793.329 261.491 802.668 260.383 804.989C259.394 805.924 259.47 805.99 258.184 806.335C254.601 803.999 243.134 794.104 240.475 790.866C240.778 789.265 241.004 789.46 242.247 788.014C246.191 784.973 252.108 779.1 255.999 775.452Z"/><path fill="white" d="M242.247 788.014C248.22 794.685 253.613 799.235 260.383 804.989C259.394 805.924 259.47 805.99 258.184 806.335C254.601 803.999 243.134 794.104 240.475 790.866C240.778 789.265 241.004 789.46 242.247 788.014Z"/><path fill="#4B4B4B" d="M883.54 467.049C889.477 466.929 899.426 466.747 905.055 466.074C906.469 470.495 907.778 485.746 906.539 490.028C904.774 490.586 888.07 490.449 884.867 490.537C884.225 483.109 884.147 474.837 883.54 467.049Z"/><path fill="white" d="M906.539 490.028L905.789 489.846C904.07 487.893 903.181 468.359 905.055 466.074C906.469 470.495 907.778 485.746 906.539 490.028Z"/><path fill="#4B4B4B" d="M884.869 505.519C889.494 505.543 901.657 505.785 905.741 504.843C907.446 507.596 906.543 527.615 904.908 530.273L904.008 530.422C897.341 529.864 890.683 529.197 884.038 528.424C884.54 521.051 884.641 512.955 884.869 505.519Z"/><path fill="white" d="M905.741 504.843C907.446 507.596 906.543 527.615 904.908 530.273L904.008 530.422C902.749 527.742 903.853 511.603 904.099 507.706C904.214 505.902 904.634 505.758 905.741 504.843Z"/><path fill="#4B4B4B" d="M149.422 660.798C152.493 660.871 165.195 656.199 168.997 655.121C172.494 661.704 175.686 668.362 179.151 674.942C173.82 676.872 163.002 682.477 158.824 683.426C155.895 679.614 149.493 667.702 148.405 662.817C148.192 661.859 148.599 661.825 149.422 660.798Z"/><path fill="white" d="M149.422 660.798C151.913 663.304 158.191 676.813 159.437 680.781C159.673 681.532 159.178 682.701 158.824 683.426C155.895 679.614 149.493 667.702 148.405 662.817C148.192 661.859 148.599 661.825 149.422 660.798Z"/><path fill="#4B4B4B" d="M882.773 543.363C888.812 544.197 897.633 544.355 902.921 545.447C903.885 546.326 903.986 546.025 903.961 547.225C903.863 551.73 902.281 566.729 900.073 570.129C899.354 570.237 898.959 570.331 898.232 570.333C896.607 569.054 882.518 566.571 879.525 565.987C880.723 558.463 881.806 550.92 882.773 543.363Z"/><path fill="white" d="M902.921 545.447C903.885 546.326 903.986 546.025 903.961 547.225C903.863 551.73 902.281 566.729 900.073 570.129C899.354 570.237 898.959 570.331 898.232 570.333C897.983 569.019 900.993 547.316 901.495 545.835L902.921 545.447Z"/><path fill="#4B4B4B" d="M285.066 799.609C290.925 804.02 296.847 808.345 302.833 812.582C301.035 815.086 292.364 826.887 291.53 829.091L290.275 830.126C286.648 829.259 272.776 819.106 270.749 816.174L272.022 814.026C276.221 809.978 281.054 804.083 285.066 799.609Z"/><path fill="white" d="M272.022 814.026C276.982 818.087 288.161 825.777 291.53 829.091L290.275 830.126C286.648 829.259 272.776 819.106 270.749 816.174L272.022 814.026Z"/><path fill="#4B4B4B" d="M170.673 297.529C170.283 296.891 170.298 296.735 170.065 296.011C171.181 292.449 180.223 277.447 183.252 275.597L184.407 275.992C186.978 280.623 194.486 288.335 198.294 292.461C194.662 297.964 189.938 304.826 186.837 310.591C183.846 307.975 173.776 298.883 170.673 297.529Z"/><path fill="white" d="M170.673 297.529C170.283 296.891 170.298 296.735 170.065 296.011C171.181 292.449 180.223 277.447 183.252 275.597L184.407 275.992C183.96 279.408 173.336 295.403 170.673 297.529Z"/><path fill="#4B4B4B" d="M137.426 371.495C136.691 370.795 136.082 370.535 136.31 369.322C137.164 364.785 142.537 349.381 145.237 346.829L146.497 347.154C150.919 350.899 158.33 354.854 163.318 358.314L155.585 378.918C152.259 377.387 140.555 371.8 137.426 371.495Z"/><path fill="white" d="M137.426 371.495C136.691 370.795 136.082 370.535 136.31 369.322C137.164 364.785 142.537 349.381 145.237 346.829L146.497 347.154C146.211 350.513 139.151 368.84 137.426 371.495Z"/><path fill="#4B4B4B" d="M117.356 448.162C117.488 443.887 119.462 427.033 122.286 424.666L123.951 425.083C129.907 427.048 136.393 428.795 142.18 430.823C140.848 438.094 139.742 445.676 138.386 452.82C132.7 451.676 123.946 449.964 117.878 449.198C117.676 448.97 117.473 448.742 117.271 448.515L117.356 448.162Z"/><path fill="white" d="M117.356 448.162C117.488 443.887 119.462 427.033 122.286 424.666L123.951 425.083C123.182 429.355 120.69 444.96 119.45 448.392L118.737 448.838C117.926 448.549 117.806 448.665 117.356 448.162Z"/><path fill="#4B4B4B" d="M889.094 389.21C890.904 389.075 890.887 388.743 891.956 389.58C893.854 394.252 897.388 407.994 897.545 413.062C892.365 412.902 881.946 414.349 876.104 414.815C874.488 407.792 872.432 400.359 870.645 393.325C876.469 391.702 883.038 390.85 889.094 389.21Z"/><path fill="white" d="M889.094 389.21C890.904 389.075 890.887 388.743 891.956 389.58C893.854 394.252 897.388 407.994 897.545 413.062L896.005 412.412C894.29 410.346 890.255 393.266 889.094 389.21Z"/><path fill="#4B4B4B" d="M275.778 179.145C277.853 176.26 291.483 166.158 295.193 165.543L296.096 166.46C298.546 173.015 300.736 179.695 303.101 186.291C297.224 190.112 290.56 194.664 285.039 199.009C282.27 193.135 278.694 184.492 275.778 179.145Z"/><path fill="white" d="M275.778 179.145C277.853 176.26 291.483 166.158 295.193 165.543L296.096 166.46C295.254 169.118 279.44 179.149 275.778 179.145Z"/><path fill="#4B4B4B" d="M899.93 427.119C901.954 429.163 905.014 448.848 903.375 451.422L902.328 451.845C897.94 450.921 887.082 451.669 882.23 451.941C881.265 444.704 879.944 437.043 878.824 429.791C884.116 429.348 895.251 428.603 899.93 427.119Z"/><path fill="white" d="M899.93 427.119C901.954 429.163 905.014 448.848 903.375 451.422L902.328 451.845C900.693 448.511 898.895 430.923 899.93 427.119Z"/><path fill="#4B4B4B" d="M876.926 580.914C882.112 581.882 889.229 583.217 894.357 583.614C896.131 584.104 896.596 583.86 897.347 585.017C897.1 588.493 893.277 607.332 891.067 609.256L890.543 609.31C888.984 608.353 874.502 603.935 871.758 603.065C873.639 595.72 875.362 588.334 876.926 580.914Z"/><path fill="white" d="M894.357 583.614C896.131 584.104 896.596 583.86 897.347 585.017C897.1 588.493 893.277 607.332 891.067 609.256L890.543 609.31C889.262 606.106 893.467 588.501 894.357 583.614Z"/><path fill="#4B4B4B" d="M867.18 617.402C871.499 618.716 880.432 621.54 884.469 622.027C886.216 622.878 886.426 622.607 887.213 624.001C886.293 627.543 880.803 645.133 878.978 647.226C877.757 646.994 877.716 646.977 876.583 646.464C873.343 644.57 863.877 640.542 860.078 638.807C862.54 631.704 864.908 624.568 867.18 617.402Z"/><path fill="white" d="M884.469 622.027C886.216 622.878 886.426 622.607 887.213 624.001C886.293 627.543 880.803 645.133 878.978 647.226C877.757 646.994 877.716 646.977 876.583 646.464C879.351 638.364 881.98 630.217 884.469 622.027Z"/><path fill="#4B4B4B" d="M123.975 585.618C130.903 584.832 137.818 583.95 144.721 582.971C146.499 590.056 148.256 597.521 150.333 604.488C145.766 605.439 134.721 607.513 130.949 609.49L129.777 609.389C127.298 606.81 122.638 588.475 123.975 585.618Z"/><path fill="white" d="M130.949 609.49L129.777 609.389C127.298 606.81 122.638 588.475 123.975 585.618C126.434 588.908 130.901 605.726 130.949 609.49Z"/><path fill="#4B4B4B" d="M860.022 315.757C860.769 315.619 861.711 315.174 862.205 315.743C864.94 318.894 872.887 334.313 872.528 337.563L871.521 338.073C866.354 339.932 857.97 342.087 852.477 343.684C849.402 336.805 846.038 329.97 842.854 323.125C846.581 321.724 857.226 317.826 860.022 315.757Z"/><path fill="white" d="M860.022 315.757C860.769 315.619 861.711 315.174 862.205 315.743C864.94 318.894 872.887 334.313 872.528 337.563L871.521 338.073C868.918 336.448 860.922 319.081 860.022 315.757Z"/><path fill="#4B4B4B" d="M842.068 281.024C844.49 281.938 855.45 300.103 855.474 302.755C852.656 303.279 839.24 308.761 835.743 310.135C832.075 304.454 827.536 296.766 824.207 290.936C830.387 287.813 836.238 284.794 842.068 281.024Z"/><path fill="white" d="M842.068 281.024C844.49 281.938 855.45 300.103 855.474 302.755C851.11 301.557 841.558 285.245 842.068 281.024Z"/><path fill="#4B4B4B" d="M135.587 623.94C140.224 623.726 150.073 620.973 155.017 619.943C157.496 625.994 161.005 634.625 162.978 640.746C159.104 641.955 147.24 645.468 144.098 647.165C143.391 647.089 143.274 646.957 142.592 646.674C140.149 643.09 134.804 630.47 134.285 625.601C134.198 624.783 134.758 624.647 135.587 623.94Z"/><path fill="white" d="M144.098 647.165C143.391 647.089 143.274 646.957 142.592 646.674C140.149 643.09 134.804 630.47 134.285 625.601C134.198 624.783 134.758 624.647 135.587 623.94C137.449 627.148 144.184 643.6 144.098 647.165Z"/><path fill="#4B4B4B" d="M126.464 409.43L125.374 409.113C124.34 406.679 129.404 387.171 131.486 385.133L133.525 386.073C139.254 388.854 145.035 391.524 150.867 394.082C148.956 401.177 147.11 408.289 145.33 415.418C139.443 413.338 131.568 411.367 126.464 409.43Z"/><path fill="white" d="M126.464 409.43L125.374 409.113C124.34 406.679 129.404 387.171 131.486 385.133L133.525 386.073C132.043 390.988 128.127 405.791 126.464 409.43Z"/><path fill="#4B4B4B" d="M854.631 652.38C859.639 654.674 865.793 657.726 870.877 659.502C871.295 659.818 872.946 660.841 872.837 661.317C871.893 665.432 864.884 682.033 862.038 683.683L861.067 683.217C856.783 680.131 849.665 676.303 844.907 673.434C847.133 667.603 851.856 658.299 854.631 652.38Z"/><path fill="white" d="M870.877 659.502C871.295 659.818 872.946 660.841 872.837 661.317C871.893 665.432 864.884 682.033 862.038 683.683L861.067 683.217C861.743 679.537 868.965 663.156 870.877 659.502Z"/><path fill="#4B4B4B" d="M151.961 333.086L151.346 332.479C151.271 329.627 159.719 311.883 162.26 310.739L163.465 311.542C168.441 316.307 173.705 320.667 178.958 325.125C175.759 331.272 172.711 337.497 169.816 343.792C163.992 340.344 157.641 336.699 151.961 333.086Z"/><path fill="white" d="M151.961 333.086L151.346 332.479C151.271 329.627 159.719 311.883 162.26 310.739L163.465 311.542C162.294 314.88 154.472 332.001 151.961 333.086Z"/><path fill="#4B4B4B" d="M229.453 748.933C231.455 750.256 242.306 762.268 244.536 764.719C239.701 769.57 233.805 774.832 228.747 779.548C224.003 775.706 216.338 766.703 212.446 761.805C216.994 757.899 224.429 752.742 229.453 748.933Z"/><path fill="#4B4B4B" d="M246.473 204.601L245.834 203.606C246.677 200.791 260.128 189.283 263.316 188.792L264.591 189.938C265.513 194.054 271.03 204.083 273.057 208.358C267.728 213.086 262.202 217.849 257.172 222.87C254.746 219.01 248.029 208.605 246.473 204.601Z"/><path fill="white" d="M246.473 204.601L245.834 203.606C246.677 200.791 260.128 189.283 263.316 188.792L264.591 189.938C262.709 191.963 248.43 204.141 246.473 204.601Z"/><path fill="#4B4B4B" d="M218.798 232.986C218.409 232.403 218.217 231.965 217.902 231.34C219.005 228.38 230.821 215.545 233.741 214.446L234.772 215.049C237.315 220.948 242.045 227.796 245.684 233.166C240.684 238.387 235.818 243.734 231.09 249.203C226.683 243.905 222.883 237.808 218.798 232.986Z"/><path fill="white" d="M218.798 232.986C218.409 232.403 218.217 231.965 217.902 231.34C219.005 228.38 230.821 215.545 233.741 214.446L234.772 215.049C233.995 217.869 221.263 231.141 218.798 232.986Z"/><path fill="#4B4B4B" d="M189.631 729.367C194.384 727.973 201.646 721.943 206.235 719.902C209.974 724.289 216.519 732.553 219.476 737.522C213.881 741.463 208.338 745.48 202.851 749.57C199.908 748.386 188.632 733.833 188.267 730.695L189.631 729.367Z"/><path fill="white" d="M189.631 729.367C192.778 731.383 202.423 745.549 202.851 749.57C199.908 748.386 188.632 733.833 188.267 730.695L189.631 729.367Z"/><path fill="#4B4B4B" d="M876.32 352.014L878.232 351.764C880.931 353.93 887.246 371.52 886.612 374.237L885.455 374.554C884.22 375.053 869.407 377.913 866.271 378.692C863.688 372.78 860.791 363.918 858.541 357.663C862.266 356.533 873.344 353.467 876.32 352.014Z"/><path fill="white" d="M876.32 352.014L878.232 351.764C880.931 353.93 887.246 371.52 886.612 374.237L885.455 374.554C882.742 372.008 877.673 356.292 876.32 352.014Z"/><path fill="#4B4B4B" d="M168.162 696.331C171.366 696.166 182.9 690.281 186.33 688.612C189.364 693.273 195.059 701.944 197.494 706.627C193.539 709.014 183.248 714.967 180.112 717.798C177.127 717.683 166.933 700.741 166.857 697.573L168.162 696.331Z"/><path fill="white" d="M168.162 696.331C170.678 698.268 179.863 714.397 180.112 717.798C177.127 717.683 166.933 700.741 166.857 697.573L168.162 696.331Z"/><path fill="#4B4B4B" d="M342.186 140.007C344.579 136.993 359.64 131.303 363.941 130.33C364.823 137.703 365.894 145.052 367.152 152.37C360.609 155.147 353.641 158.396 347.161 161.017C345.976 155.728 343.788 144.687 342.186 140.007Z"/><path fill="white" d="M342.186 140.007C344.579 136.993 359.64 131.303 363.941 130.33C362.166 133.94 346.256 140.353 342.186 140.007Z"/><path fill="#4B4B4B" d="M818.567 250.645L819.751 250.052C823 251.572 832.494 265.102 834.261 268.581C834.189 268.919 834.11 269.456 833.972 269.738C831.025 270.705 819.574 277.152 816.092 279.024C812.578 274.981 805.472 265.349 802.42 261.019C807.114 258.505 813.847 253.687 818.567 250.645Z"/><path fill="white" d="M818.567 250.645L819.751 250.052C823 251.572 832.494 265.102 834.261 268.581C834.189 268.919 834.11 269.456 833.972 269.738C830.919 268.983 818.83 253.286 818.567 250.645Z"/><path fill="#4B4B4B" d="M315.876 821.271C322.061 825.009 328.306 828.647 334.608 832.186C332.483 835.467 325.418 849.342 323.092 850.602C318.174 847.952 306.782 842.127 302.982 838.541C307.451 833.16 311.755 826.977 315.876 821.271Z"/><path fill="#4B4B4B" d="M451.506 106.898C454.668 105.354 470.772 103.209 474.108 104.048C474.426 105.343 474.383 105.312 474.273 106.658C473.486 113.326 473.01 119.651 472.522 126.349C466.087 126.675 458.262 128.151 451.364 128.682C451.481 121.421 451.528 114.159 451.506 106.898Z"/><path fill="white" d="M451.506 106.898C454.668 105.354 470.772 103.209 474.108 104.048C474.426 105.343 474.383 105.312 474.273 106.658C468.013 106.544 460.426 107.938 454.054 108.047C452.261 108.078 452.623 108.015 451.506 106.898Z"/><path fill="#4B4B4B" d="M377.958 125.228C379.088 122.827 397.574 117.202 400.255 118.385L400.418 119.943C400.552 126.701 400.827 133.455 401.244 140.202C395.883 141.913 386.303 144.708 381.288 146.792C380.212 140.937 379.189 129.914 377.958 125.228Z"/><path fill="white" d="M377.958 125.228C379.088 122.827 397.574 117.202 400.255 118.385L400.418 119.943C398.719 121.344 380.483 125.817 377.958 125.228Z"/><path fill="#4B4B4B" d="M837.75 686.773C842.833 689.686 847.997 692.454 853.236 695.076C854.74 696.145 854.979 695.903 855.342 697.28C853.992 700.571 845.284 716.141 842.499 717.956C837.392 713.804 831.73 710.302 826.423 705.903C830.254 699.559 834.03 693.183 837.75 686.773Z"/><path fill="white" d="M853.236 695.076C854.74 696.145 854.979 695.903 855.342 697.28C853.992 700.571 845.284 716.141 842.499 717.956C842.34 717.212 841.987 715.712 842.3 715.055C845.383 708.592 849.726 701.258 853.236 695.076Z"/><path fill="#4B4B4B" d="M414.518 115.059L414.746 114.304C417.009 112.37 434.754 108.113 437.207 109.855L437.279 111.625C436.454 118.175 436.484 125.039 436.491 131.647C429.862 133.131 422.32 134.645 415.816 136.362C415.612 131.762 415.281 118.901 414.518 115.059Z"/><path fill="white" d="M414.518 115.059L414.746 114.304C417.009 112.37 434.754 108.113 437.207 109.855L437.279 111.625C433.458 112.354 417.179 115.887 414.518 115.059Z"/><path fill="#4B4B4B" d="M348.224 839.225C354.088 842.257 361.432 845.35 367.551 848.09C365.652 852.85 361.49 863.508 359.191 867.638L358.37 867.659C351.695 864.892 343.658 861.265 337.309 857.921C341.007 851.724 344.646 845.492 348.224 839.225Z"/><path fill="#4B4B4B" d="M489.478 102.892C493.639 101.963 507.187 101.251 511.963 102.494C512.496 102.633 512.384 103.066 512.482 103.742C510.966 109.503 509.883 118.145 509.081 124.074L487.677 125.051C488.176 117.665 489.189 110.265 489.478 102.892Z"/><path fill="white" d="M489.478 102.892C493.639 101.963 507.187 101.251 511.963 102.494C512.496 102.633 512.384 103.066 512.482 103.742C507.217 104.427 496.766 104.373 491.226 104.26C490.084 104.237 490.275 103.992 489.478 102.892Z"/><path fill="#4B4B4B" d="M114.637 506.556C119.62 507.78 129.977 507.365 135.555 507.879L136.707 529.501C131.861 529.66 120.687 529.799 116.281 530.748C113.644 528.572 113.006 509.099 114.637 506.556Z"/><path fill="white" d="M116.281 530.748C113.644 528.572 113.006 509.099 114.637 506.556C116.245 507.766 116.323 507.41 116.555 509.94C116.885 513.518 117.58 528.04 116.281 530.748Z"/><path fill="#4B4B4B" d="M737.544 175.053L738.945 173.41C741.426 173.237 756.499 185.04 758.3 187.359C758.229 187.71 758.109 188.459 757.981 188.753C755.009 190.105 746.283 199.478 743.624 202.191C738.339 198.771 731.037 193.063 725.783 189.217C729.755 184.874 733.803 179.66 737.544 175.053Z"/><path fill="white" d="M737.544 175.053L738.945 173.41C741.426 173.237 756.499 185.04 758.3 187.359C758.229 187.71 758.109 188.459 757.981 188.753C755.038 188.104 740.543 177.454 737.544 175.053Z"/><path fill="#4B4B4B" d="M114.477 489.035C113.324 485.393 114.281 469.347 115.911 465.91L117.067 465.964C123.573 467.193 130.092 468.349 136.624 469.432C136.311 476.569 135.954 483.704 135.552 490.836C132.113 490.503 116.202 489.73 114.477 489.035Z"/><path fill="white" d="M114.477 489.035C113.324 485.393 114.281 469.347 115.911 465.91L117.067 465.964C117.833 468.525 116.746 485.344 116.23 488.422L115.782 488.953L114.477 489.035Z"/><path fill="#4B4B4B" d="M616.299 861.56C617.706 861.471 617.097 861.258 618.224 861.936C620.063 865.613 622.374 876.579 623.432 881.115C617.168 883.172 610.116 884.934 603.696 886.66C602.275 887.027 601.661 887.338 600.263 886.905C599.651 885.424 597.141 869.385 596.669 866.646C602.994 864.859 609.896 863.215 616.299 861.56Z"/><path fill="#4B4B4B" d="M818.47 718.121C822.924 721.644 827.6 724.868 832.238 728.145C833.818 729.284 834.064 729.034 834.509 730.517C832.624 734.235 823.203 746.701 820.169 749.835L819.024 750.118C816.218 746.304 809.192 740.734 805.249 736.116L818.47 718.121Z"/><path fill="white" d="M832.238 728.145C833.818 729.284 834.064 729.034 834.509 730.517C832.624 734.235 823.203 746.701 820.169 749.835L819.024 750.118C818.886 745.11 829.023 732.901 832.238 728.145Z"/><path fill="#4B4B4B" d="M651.394 850.024L652.188 849.98C653.746 851.214 658.414 865.746 659.48 868.816C652.587 871.728 646.181 873.882 639.095 876.315C637.768 876.725 637.79 876.823 636.445 876.622C635.052 873.988 632.128 860.681 631.277 857.109C638.038 854.908 644.746 852.546 651.394 850.024Z"/><path fill="#4B4B4B" d="M705.975 154.017L706.808 153.282C710.508 154.088 724.221 162.421 726.839 165.004L726.844 165.613C722.334 170.278 717.982 176.315 713.714 181.387C707.481 177.765 701.113 173.79 694.923 170.049C697.886 165.475 702.585 158.124 705.975 154.017Z"/><path fill="white" d="M705.975 154.017L706.808 153.282C710.508 154.088 724.221 162.421 726.839 165.004C723.36 166.435 707.298 156.994 705.975 154.017Z"/><path fill="#4B4B4B" d="M527.488 104.061L527.899 102.774C531.191 101.928 547.556 103.074 550.294 104.663L550.587 105.888C548.666 109.264 546.067 121.291 545.146 125.574C538.414 125.341 531.048 124.703 524.302 124.246C524.65 120.051 526.386 107.975 527.488 104.061Z"/><path fill="white" d="M527.488 104.061L527.899 102.774C531.191 101.928 547.556 103.074 550.294 104.663L550.587 105.888C547.066 106.22 530.531 105.204 527.488 104.061Z"/><path fill="#4B4B4B" d="M308.384 157.425C310.306 154.646 325.33 146.648 328.957 146.693C329.795 152.312 332.45 161.954 333.87 167.808C327.816 171.058 321.837 174.446 315.939 177.971C313.096 171.141 311.09 163.96 308.384 157.425Z"/><path fill="white" d="M308.384 157.425C310.306 154.646 325.33 146.648 328.957 146.693C326.968 150.262 312.314 157.865 308.384 157.425Z"/><path fill="#4B4B4B" d="M600.904 114.431L601.414 113.343C603.948 112.492 621.397 116.694 623.826 118.73C620.715 125.089 617.979 131.636 615.178 138.138C608.294 136.23 601.342 134.574 594.337 133.174C596.372 127.373 598.563 119.944 600.904 114.431Z"/><path fill="white" d="M600.904 114.431L601.414 113.343C603.948 112.492 621.397 116.694 623.826 118.73C620.684 119.361 602.913 116.448 600.904 114.431Z"/><path fill="#4B4B4B" d="M767.829 197.766C768.843 197.294 769.151 196.869 769.884 197.279C774.185 199.69 784.175 208.484 786.499 212.305C786.15 213.521 786.352 213.061 785.42 214.058C783.585 214.545 772.723 224.004 770.647 225.765C765.621 221.729 759.073 215.714 754.406 211.24C757.086 208.797 766.384 200.466 767.829 197.766Z"/><path fill="white" d="M767.829 197.766C768.843 197.294 769.151 196.869 769.884 197.279C774.185 199.69 784.175 208.484 786.499 212.305C786.15 213.521 786.352 213.061 785.42 214.058C782.985 212.633 769.336 200.218 767.829 197.766Z"/><path fill="#4B4B4B" d="M117.992 547.556C123.505 546.809 132.841 546.487 138.498 546.478C139.553 553.455 140.721 560.414 142.002 567.353C136.689 567.611 124.507 569.83 120.446 569.423C118.966 566.485 116.299 551.317 116.905 547.929L117.992 547.556Z"/><path fill="white" d="M120.446 569.423C118.966 566.485 116.299 551.317 116.905 547.929L117.992 547.556C119.408 551.039 122.061 566.126 120.446 569.423Z"/><path fill="#4B4B4B" d="M685.366 833.968C686.959 838.354 690.223 845.972 692.554 849.924L693.209 852.339C691.225 854.572 675.316 862.543 671.839 862.764C671.362 862.283 670.896 861.862 670.489 861.33C670.58 858.895 666.265 846.848 665.267 843.917C671.946 840.559 678.646 837.242 685.366 833.968Z"/><path fill="white" d="M670.489 861.33C671.895 860.146 689.967 851.221 692.554 849.924L693.209 852.339C691.225 854.572 675.316 862.543 671.839 862.764C671.362 862.283 670.896 861.862 670.489 861.33Z"/><path fill="#4B4B4B" d="M636.751 124.107C637.863 123.253 637.485 123.155 638.815 123.383C643.225 124.138 656.599 128.241 659.654 130.939C659.626 132.031 659.751 131.53 659.325 132.453C655.771 137.272 652.346 143.972 649.402 149.311C643.239 146.743 635.814 144.253 629.45 141.966C631.52 137.177 635.274 128.895 636.751 124.107Z"/><path fill="white" d="M636.751 124.107C637.863 123.253 637.485 123.155 638.815 123.383C643.225 124.138 656.599 128.241 659.654 130.939C659.626 132.031 659.751 131.53 659.325 132.453C655.994 131.909 639.143 126.394 636.751 124.107Z"/><path fill="#4B4B4B" d="M697.562 827.5C703.073 824.682 710.874 819.342 716.449 815.908C718.559 819.735 723.073 828.136 725.529 831.145C725.781 832.266 726.207 832.899 725.663 833.469C722.523 836.765 709.841 844.952 705.987 845.828C704.981 845.236 705.335 845.662 704.949 844.528C703.376 841.784 699.079 831.021 697.562 827.5Z"/><path fill="white" d="M725.529 831.145C725.781 832.266 726.207 832.899 725.663 833.469C722.523 836.765 709.841 844.952 705.987 845.828C704.981 845.236 705.335 845.662 704.949 844.528C706.534 842.622 722.856 832.358 725.529 831.145Z"/><path fill="#4B4B4B" d="M416.371 864.917C422.867 866.525 430.334 867.966 436.944 869.406C436.433 872.362 433.822 889.471 432.236 890.357C424.876 888.726 417.358 887.169 410.151 884.996C412.345 878.341 414.419 871.647 416.371 864.917Z"/><path fill="#4B4B4B" d="M381.819 854.217C388.651 856.399 395.106 858.488 401.835 860.957C400.919 863.973 396.404 879.519 394.655 880.794C387.997 878.73 379.344 876.126 373.078 873.399C376.209 866.975 378.953 860.767 381.819 854.217Z"/><path fill="#4B4B4B" d="M488.708 875.823L509.791 876.225C509.758 880.045 509.42 890.887 509.756 894.166C509.596 895.863 509.789 896.261 508.947 897.589C504.095 897.999 491.467 897.361 487.027 896.384C486.198 895.369 486.541 894.897 486.565 893.178C487.405 888.203 488.404 880.898 488.708 875.823Z"/><path fill="white" d="M486.565 893.178C492.273 893.822 503.926 894.16 509.756 894.166C509.596 895.863 509.789 896.261 508.947 897.589C504.095 897.999 491.467 897.361 487.027 896.384C486.198 895.369 486.541 894.897 486.565 893.178Z"/><path fill="#4B4B4B" d="M561.368 872.707C568.26 871.628 575.146 870.51 582.025 869.353C583.293 876.145 584.303 883.006 585.602 889.842C582.142 891.833 567.8 894.294 563.482 893.492C562.578 892.454 562.859 892.914 562.521 891.504C563.209 887.816 561.824 876.865 561.368 872.707Z"/><path fill="white" d="M562.521 891.504C564.252 890.934 570.364 889.834 572.32 889.697C576.735 889.389 582.213 887.317 585.602 889.842C582.142 891.833 567.8 894.294 563.482 893.492C562.578 892.454 562.859 892.914 562.521 891.504Z"/><path fill="#4B4B4B" d="M544.941 874.701L545.653 874.98C546.777 877.746 547.512 891.726 547.749 895.381C540.827 896.222 533.867 896.607 526.909 897.066C526.578 897.042 525.509 896.811 525.143 896.74C523.933 894.198 524.913 880.106 525.035 876.11C531.671 875.886 538.321 875.254 544.941 874.701Z"/><path fill="#4B4B4B" d="M452.085 872.446L473.168 874.641C472.846 878.556 471.83 893.003 469.926 895.646C462.843 895.056 454.8 894.095 447.824 892.737C449.317 886.061 450.677 879.157 452.085 872.446Z"/><path fill="#4B4B4B" d="M564.087 107.673C565.134 106.731 565.189 106.468 566.98 106.621C570.694 106.937 584.215 108.361 586.996 110.318L587.232 111.453C585.198 114.436 581.261 126.581 579.96 130.44C573.254 129.228 566.528 128.133 559.784 127.154C560.85 122.913 563.932 111.462 564.087 107.673Z"/><path fill="white" d="M564.087 107.673C565.134 106.731 565.189 106.468 566.98 106.621C570.694 106.937 584.215 108.361 586.996 110.318L587.232 111.453C583.213 111.746 567.407 109.703 564.087 107.673Z"/><path fill="#4B4B4B" d="M772.573 772.245C776.235 776.561 779.848 780.919 783.41 785.317L784.77 787.309C783.346 789.77 768.885 803.031 766.643 803.274L765.63 802.431C764.017 799.064 758.468 791.125 756.205 787.486C761.231 782.423 767.264 777.11 772.573 772.245Z"/><path fill="white" d="M783.41 785.317L784.77 787.309C783.346 789.77 768.885 803.031 766.643 803.274L765.63 802.431C766.761 799.254 779.924 788.434 783.41 785.317Z"/><path fill="#4B4B4B" d="M727.991 808.724C733.913 804.53 739.605 799.892 745.521 795.602C748.965 800.573 752.774 806.953 756.469 811.538C755.8 813.847 740.001 826.125 737.08 825.274L736.199 823.994C733.425 818.924 730.689 813.834 727.991 808.724Z"/><path fill="white" d="M736.199 823.994C740.633 820.578 749.143 814.204 754.27 811.407C755.136 811.459 755.87 811.503 756.469 811.538C755.8 813.847 740.001 826.125 737.08 825.274L736.199 823.994Z"/><path fill="#4B4B4B" d="M672.764 137.023C676.336 135.951 690.401 143.762 693.903 146.193C690.239 150.042 684.999 158.806 682.07 163.492L663.491 154.664C666.222 148.767 669.941 143.037 672.764 137.023Z"/><path fill="white" d="M672.764 137.023C676.336 135.951 690.401 143.762 693.903 146.193C693.204 146.403 691.293 146.956 690.712 146.76C685.864 145.121 675.546 141.227 672.764 137.023Z"/><path fill="#4B4B4B" d="M796.173 746.866C799.533 749.426 807.009 757.733 810.212 761.181C805.735 766.658 799.905 772.393 794.974 777.648C794.668 777.668 794.362 777.688 794.057 777.707C790.499 774.037 784.987 766.688 781.87 762.521C786.537 757.211 791.305 751.992 796.173 746.866Z"/><path fill="#4B4B4B" d="M797.052 222.652C800.181 225.9 808.674 234.537 810.292 238.079C810.302 238.111 810.324 238.142 810.32 238.175C810.146 239.628 796.016 249.027 793.961 250.485C789.07 245.357 785.515 242.21 780.742 236.41C785.633 232.263 792.07 226.386 797.052 222.652Z"/><path fill="white" d="M797.052 222.652C800.181 225.9 808.674 234.537 810.292 238.079C809.994 238.195 809.373 238.226 809.018 238.265C805.65 236.636 798.816 228.696 796.371 225.598C796.569 224.498 796.763 223.733 797.052 222.652Z"/></svg>